<svg width="2458" height="905" viewBox="0 0 2458 905" fill="none" xmlns="http://www.w3.org/2000/svg">
<path d="M2435.76 22.7363H22.2417V882.265H2435.76V22.7363Z" fill="white"/>
<path d="M0.412354 0.90625V904.096H2457.59V0.90625H0.412354ZM2435.76 882.265H22.2416V22.7367H2435.76V882.265ZM1080.98 815.503H1070.07V89.4989H1080.98V815.503ZM1272.35 404.187H1249.95V267.867H1272.35V404.187ZM1370.49 345.57C1370.49 337.39 1368.74 331.124 1365.23 326.77C1361.73 322.427 1356.4 320.25 1349.27 320.25H1347.91C1343.74 320.25 1339.79 321.286 1336.02 323.367C1332.26 325.449 1329.2 328.619 1326.87 332.91C1324.53 337.19 1323.37 342.642 1323.37 349.268V404.187H1301.94V304.473H1320.83V319.468C1323.95 314.015 1328.2 309.704 1333.59 306.523C1338.98 303.342 1345.37 301.746 1352.77 301.746H1354.72C1366.02 301.746 1375.03 305.255 1381.78 312.261C1388.53 319.278 1391.92 329.401 1391.92 342.642V404.187H1370.49V345.57ZM1424.34 393.958C1415.84 385.461 1411.58 373.288 1411.58 357.447V351.022C1411.58 340.634 1413.56 331.779 1417.52 324.435C1421.48 317.101 1427.03 311.489 1434.17 307.59C1441.32 303.701 1449.56 301.746 1458.91 301.746H1460.85C1470.07 301.746 1477.89 303.955 1484.32 308.372C1490.75 312.789 1495.39 318.633 1498.24 325.893L1481.11 333.491C1479.16 329.475 1476.53 326.252 1473.22 323.853C1469.91 321.455 1465.79 320.25 1460.85 320.25H1459.1C1451.44 320.25 1445.17 322.786 1440.31 327.848C1435.44 332.91 1433.01 340.507 1433.01 350.631V357.838C1433.01 368.353 1435.38 376.077 1440.11 381.012C1444.86 385.947 1451.18 388.41 1459.1 388.41H1460.85C1466.04 388.41 1470.4 387.279 1473.9 385.007C1477.4 382.735 1480.13 379.649 1482.08 375.75L1498.83 384.521C1495.97 391.009 1491.23 396.335 1484.61 400.488C1477.99 404.641 1470.07 406.723 1460.85 406.723H1458.91C1444.36 406.723 1432.84 402.464 1424.34 393.958ZM1558.81 406.723H1561.73C1570.95 406.723 1578.93 405 1585.68 401.556C1592.43 398.121 1597.56 393.408 1601.07 387.437L1585.49 377.314C1583.16 381.34 1580.07 384.352 1576.23 386.37C1572.41 388.378 1567.57 389.382 1561.73 389.382H1558.81C1551.15 389.382 1545.15 386.983 1540.79 382.185C1536.45 377.377 1534.08 370.107 1533.69 360.364H1604.37V348.486C1604.37 334.209 1600.45 322.849 1592.59 314.406C1584.74 305.973 1574.07 301.746 1560.56 301.746H1558.81C1544.66 301.746 1533.43 306.132 1525.12 314.892C1516.81 323.663 1512.65 335.763 1512.65 351.212V357.637C1512.65 373.351 1516.71 385.461 1524.83 393.958C1532.94 402.464 1544.27 406.723 1558.81 406.723ZM1541.57 325.893C1545.93 321.486 1551.67 319.278 1558.81 319.278H1560.36C1567.63 319.278 1573.32 321.391 1577.41 325.608C1581.5 329.824 1583.55 335.964 1583.55 344.006V345.369H1533.88C1534.66 336.799 1537.22 330.31 1541.57 325.893ZM1677.4 406.723C1685.58 406.723 1692.85 404.831 1699.21 401.069C1705.57 397.308 1710.6 391.76 1714.3 384.415C1718 377.082 1719.85 368.163 1719.85 357.637V351.212C1719.85 340.571 1718 331.578 1714.3 324.244C1710.6 316.911 1705.57 311.321 1699.21 307.495C1692.85 303.67 1685.58 301.746 1677.4 301.746H1676.23C1668.57 301.746 1661.98 303.279 1656.47 306.322C1650.94 309.376 1646.63 313.624 1643.51 319.077V304.473H1624.62V443.138H1646.05V392.499C1649.29 397.043 1653.48 400.552 1658.6 403.014C1663.73 405.487 1669.6 406.723 1676.23 406.723L1677.4 406.723ZM1670.97 388.41C1666.69 388.41 1662.6 387.342 1658.7 385.197C1654.81 383.052 1651.66 379.681 1649.26 375.074C1646.85 370.466 1645.66 364.527 1645.66 357.257V351.212C1645.66 343.815 1646.85 337.845 1649.26 333.301C1651.66 328.757 1654.78 325.449 1658.6 323.367C1662.43 321.286 1666.56 320.25 1670.97 320.25H1672.53C1679.93 320.25 1686.1 322.723 1691.03 327.647C1695.96 332.582 1698.43 340.381 1698.43 351.022V357.637C1698.43 368.289 1695.96 376.077 1691.03 381.012C1686.1 385.947 1679.93 388.41 1672.53 388.41H1670.97ZM1747.5 322.194H1726.46V304.473H1747.5V275.064H1768.92V304.473H1801.45L1798.91 322.194H1768.92V371.47C1768.92 377.05 1770.22 381.044 1772.82 383.443C1775.41 385.852 1779.31 387.046 1784.5 387.046H1801.45V405.159H1782.36C1769.77 405.159 1760.81 402.338 1755.48 396.684C1750.15 391.041 1747.5 382.957 1747.5 372.442V322.194ZM1820.33 264.359H1842.53V286.751H1820.33V264.359ZM1820.72 304.473H1842.15V404.187H1820.72V304.473ZM1886.05 400.974C1893.13 404.8 1901.14 406.723 1910.1 406.723H1911.86C1920.82 406.723 1928.86 404.8 1936 400.974C1943.15 397.149 1948.76 391.527 1952.85 384.13C1956.94 376.722 1958.99 367.835 1958.99 357.447V351.022C1958.99 340.635 1956.94 331.779 1952.85 324.435C1948.76 317.101 1943.15 311.49 1936 307.59C1928.86 303.701 1920.82 301.746 1911.86 301.746H1910.1C1901.14 301.746 1893.13 303.701 1886.05 307.59C1878.97 311.49 1873.36 317.101 1869.21 324.435C1865.06 331.779 1862.98 340.698 1862.98 351.212V357.447C1862.98 367.835 1865.06 376.722 1869.21 384.13C1873.36 391.527 1878.97 397.149 1886.05 400.974ZM1884.41 350.631C1884.41 340.381 1886.87 332.751 1891.8 327.753C1896.74 322.755 1902.83 320.25 1910.1 320.25H1911.67C1919.06 320.25 1925.23 322.755 1930.16 327.753C1935.09 332.751 1937.57 340.381 1937.57 350.631V357.838C1937.57 368.099 1935.09 375.75 1930.16 380.812C1925.23 385.884 1919.06 388.41 1911.67 388.41H1910.1C1902.83 388.41 1896.74 385.884 1891.8 380.812C1886.87 375.75 1884.41 368.099 1884.41 357.838V350.631ZM2069.99 342.642V404.187H2048.56V345.57C2048.56 337.39 2046.82 331.124 2043.31 326.77C2039.8 322.427 2034.48 320.25 2027.34 320.25H2025.98C2021.82 320.25 2017.87 321.286 2014.09 323.367C2010.33 325.449 2007.28 328.619 2004.94 332.91C2002.61 337.19 2001.44 342.642 2001.44 349.268V404.187H1980.01V304.473H1998.91V319.468C2002.03 314.015 2006.27 309.704 2011.66 306.523C2017.05 303.342 2023.44 301.747 2030.84 301.747H2032.8C2044.09 301.747 2053.11 305.255 2059.86 312.261C2066.61 319.278 2069.99 329.401 2069.99 342.642ZM1336.42 473.837C1327.46 466.376 1315.25 462.646 1299.8 462.646H1249.95V598.965H1272.35V551.053H1299.8C1315.25 551.053 1327.46 547.386 1336.42 540.052C1345.38 532.718 1349.85 522.299 1349.85 508.794V504.704C1349.85 491.59 1345.38 481.308 1336.42 473.837ZM1327.46 509.385C1327.46 517.174 1324.89 522.891 1319.77 526.515C1314.64 530.15 1307.79 531.968 1299.22 531.968H1272.35V481.921H1299.22C1307.79 481.921 1314.64 483.738 1319.77 487.374C1324.89 491.009 1327.46 496.662 1327.46 504.313V509.385ZM1415.67 498.089H1425.8V517.945H1415.87C1411.19 517.945 1406.82 518.991 1402.73 521.062C1398.64 523.144 1395.32 526.42 1392.79 530.901C1390.26 535.381 1389 541.32 1389 548.717V598.965H1367.57V499.251H1386.46V518.146C1388.93 512.048 1392.4 507.177 1396.88 503.542C1401.36 499.906 1407.62 498.089 1415.67 498.089ZM1507.01 502.369C1499.87 498.48 1491.83 496.525 1482.86 496.525H1481.11C1472.15 496.525 1464.14 498.48 1457.06 502.369C1449.98 506.268 1444.37 511.879 1440.22 519.213C1436.06 526.558 1433.98 535.476 1433.98 545.991V552.226C1433.98 562.613 1436.06 571.501 1440.22 578.908C1444.37 586.306 1449.98 591.927 1457.06 595.753C1464.14 599.578 1472.15 601.501 1481.11 601.501H1482.86C1491.83 601.501 1499.87 599.578 1507.01 595.753C1514.15 591.927 1519.76 586.306 1523.85 578.908C1527.94 571.501 1529.99 562.613 1529.99 552.226V545.801C1529.99 535.413 1527.94 526.557 1523.85 519.213C1519.76 511.879 1514.15 506.268 1507.01 502.369ZM1508.57 552.617C1508.57 562.878 1506.1 570.528 1501.17 575.59C1496.23 580.662 1490.07 583.188 1482.67 583.188H1481.11C1473.84 583.188 1467.74 580.662 1462.81 575.59C1457.87 570.528 1455.41 562.878 1455.41 552.617V545.41C1455.41 535.159 1457.87 527.529 1462.81 522.531C1467.74 517.533 1473.84 515.028 1481.11 515.028H1482.67C1490.07 515.028 1496.23 517.533 1501.17 522.531C1506.1 527.529 1508.57 535.159 1508.57 545.41V552.617ZM1621.9 514.056C1615.41 502.369 1604.5 496.525 1589.18 496.525H1587.82C1579.38 496.525 1571.98 498.543 1565.62 502.569C1559.25 506.596 1554.33 512.239 1550.82 519.509C1547.31 526.779 1545.56 535.223 1545.56 544.828V550.08C1545.56 559.697 1547.31 568.13 1550.82 575.4C1554.33 582.67 1559.25 588.324 1565.62 592.339C1571.98 596.366 1579.38 598.384 1587.82 598.384H1589.18C1602.43 598.384 1612.43 593.639 1619.18 584.16V594.485C1619.18 613.305 1610.86 622.721 1594.25 622.721H1591.71C1585.35 622.721 1580.26 621.78 1576.42 619.899C1572.6 618.018 1569.39 614.933 1566.79 610.653L1551.4 622.14C1555.04 628.237 1560.07 632.855 1566.49 635.972C1572.93 639.079 1581.06 640.643 1590.93 640.643H1595.02C1609.7 640.643 1620.98 636.585 1628.91 628.469C1636.82 620.353 1640.79 608.835 1640.79 593.903V499.251H1621.9L1621.9 514.056ZM1619.56 549.89C1619.56 558.978 1617.25 566.28 1612.65 571.796C1608.04 577.313 1601.9 580.071 1594.25 580.071H1592.5C1584.57 580.071 1578.34 577.386 1573.8 571.997C1569.25 566.608 1566.99 559.306 1566.99 550.08V544.628C1566.99 535.413 1569.25 528.174 1573.8 522.912C1578.34 517.66 1584.57 515.028 1592.5 515.028H1594.25C1601.9 515.028 1608.04 517.723 1612.65 523.112C1617.25 528.502 1619.56 535.804 1619.56 545.019V549.89ZM1715.18 498.089H1725.31V517.945H1715.38C1710.7 517.945 1706.32 518.991 1702.23 521.062C1698.14 523.144 1694.83 526.42 1692.3 530.9C1689.76 535.381 1688.51 541.32 1688.51 548.717V598.965H1667.08V499.251H1685.97V518.146C1688.43 512.048 1691.91 507.177 1696.39 503.541C1700.87 499.906 1707.13 498.089 1715.18 498.089ZM1779.05 496.525H1776.13C1766.4 496.525 1758.12 498.511 1751.31 502.464C1744.49 506.426 1739.59 511.848 1736.6 518.727L1753.15 527.297C1755.49 522.5 1758.5 519.086 1762.21 517.078C1765.91 515.06 1770.55 514.056 1776.13 514.056H1778.27C1791.51 514.056 1798.14 521.453 1798.14 536.258V537.04L1762.89 541.711C1753.02 543.011 1745.53 546.255 1740.4 551.444C1735.27 556.643 1732.71 563.321 1732.71 571.501C1732.71 580.98 1735.62 588.356 1741.47 593.608C1747.31 598.87 1755.55 601.501 1766.19 601.501H1767.56C1774.96 601.501 1781.58 599.906 1787.42 596.725C1793.27 593.544 1797.68 589.233 1800.66 583.78V598.965H1819.56V535.867C1819.56 523.017 1816.11 513.242 1809.23 506.553C1802.35 499.875 1792.29 496.525 1779.05 496.525ZM1798.14 558.259C1798.14 566.185 1795.87 572.515 1791.32 577.249C1786.78 581.994 1780.67 584.361 1773.01 584.361H1771.07C1765.49 584.361 1761.16 583.093 1758.12 580.557C1755.07 578.031 1753.55 574.555 1753.55 570.137C1753.55 565.731 1754.87 562.487 1757.53 560.405C1760.19 558.334 1764.89 556.833 1771.65 555.924L1798.14 552.035V558.259ZM1985.18 507.039C1991.48 514.056 1994.63 524.18 1994.63 537.421V598.965H1973.21V540.348C1973.21 532.169 1971.68 525.902 1968.63 521.548C1965.58 517.205 1960.74 515.028 1954.13 515.028H1952.56C1948.93 515.028 1945.39 516.064 1941.95 518.146C1938.51 520.228 1935.72 523.398 1933.57 527.688C1931.44 531.968 1930.36 537.421 1930.36 544.047V598.965H1908.94V540.348C1908.94 532.169 1907.41 525.902 1904.37 521.548C1901.31 517.205 1896.47 515.028 1889.86 515.028H1888.29C1884.66 515.028 1881.12 516.064 1877.69 518.146C1874.24 520.228 1871.45 523.398 1869.32 527.688C1867.17 531.968 1866.1 537.421 1866.1 544.047V598.965H1844.67V499.251H1863.57V514.056C1866.55 508.604 1870.54 504.313 1875.54 501.206C1880.54 498.089 1886.41 496.525 1893.17 496.525H1894.92C1909.98 496.525 1920.36 502.696 1926.08 515.028C1929.2 509.322 1933.45 504.799 1938.84 501.491C1944.22 498.184 1950.48 496.525 1957.62 496.525H1959.38C1970.28 496.525 1978.88 500.033 1985.18 507.039Z" fill="black"/>
<path d="M469.031 600.378L469.045 738.84H508.147V600.38L469.031 600.378ZM161.427 600.189V738.84H200.878V633.561L231.439 633.571C241.563 633.571 248.773 636.091 253.652 641.296C259.837 647.888 262.361 658.513 262.361 677.958V738.84L300.578 738.833L300.585 662.236C300.585 607.562 265.735 600.189 231.643 600.189H161.427ZM531.991 600.382V738.84H595.414C629.205 738.84 640.234 733.22 652.161 720.619C660.593 711.773 666.04 692.355 666.04 671.133C666.04 651.672 661.43 634.309 653.384 623.497C638.898 604.162 618.027 600.382 586.87 600.382H531.991ZM570.779 630.531H587.592C611.982 630.531 627.757 641.484 627.757 669.906C627.757 698.334 611.982 709.288 587.592 709.288H570.779V630.531ZM412.653 600.382L380.019 710.118L348.748 600.389L306.538 600.382L351.197 738.84H407.554L452.564 600.382H412.653ZM684.236 738.84H723.344V600.389L684.227 600.382L684.236 738.84ZM793.853 600.432L739.251 738.793H777.808L786.446 714.338H851.065L859.242 738.793H901.104L846.086 600.421L793.853 600.432ZM819.235 625.675L842.922 690.494H794.8L819.235 625.675Z" fill="black"/>
<path d="M417.335 276.045V242.78C420.562 242.552 423.825 242.379 427.149 242.274C518.121 239.415 577.806 320.447 577.806 320.447C577.806 320.447 513.344 409.984 444.228 409.984C434.274 409.984 425.365 408.379 417.335 405.683V304.815C452.75 309.093 459.87 324.738 481.168 360.231L528.523 320.302C528.523 320.302 493.956 274.962 435.684 274.962C429.343 274.962 423.283 275.41 417.335 276.045ZM417.335 166.162V215.849C420.599 215.59 423.868 215.384 427.149 215.264C553.66 211.002 636.081 319.023 636.081 319.023C636.081 319.023 541.409 434.148 442.784 434.148C433.747 434.148 425.285 433.314 417.335 431.906V462.619C424.134 463.483 431.177 463.993 438.527 463.993C530.311 463.993 596.686 417.121 660.959 361.641C671.607 370.175 715.237 390.932 724.209 400.03C663.093 451.19 520.678 492.425 439.939 492.425C432.158 492.425 424.675 491.956 417.335 491.25V534.414H766.181V166.162H417.335ZM417.335 405.683V431.906C332.444 416.771 308.884 328.524 308.884 328.524C308.884 328.524 349.64 283.363 417.335 276.045L417.335 304.815C417.282 304.815 417.248 304.802 417.202 304.802C381.681 300.535 353.925 333.728 353.925 333.728C353.925 333.728 369.475 389.603 417.335 405.683ZM266.561 324.7C266.561 324.7 316.873 250.456 417.335 242.78L417.335 215.849C306.064 224.779 209.706 319.023 209.706 319.023C209.706 319.023 264.277 476.806 417.335 491.25V462.619C305.019 448.487 266.561 324.7 266.561 324.7Z" fill="#76B900"/>
</svg>
