<svg width="330" height="277" viewBox="0 0 330 277" fill="none" xmlns="http://www.w3.org/2000/svg">
<g opacity="0.8">
<mask id="mask0_2190_50460" style="mask-type:alpha" maskUnits="userSpaceOnUse" x="0" y="0" width="330" height="277">
<rect width="330" height="277" fill="url(#paint0_radial_2190_50460)"/>
</mask>
<g mask="url(#mask0_2190_50460)">
<rect x="24.5" y="33.5" width="35" height="35" stroke="white"/>
<rect x="59.5" y="33.5" width="35" height="35" stroke="white"/>
<rect x="94.5" y="33.5" width="35" height="35" stroke="white"/>
<rect x="129.5" y="33.5" width="35" height="35" stroke="white"/>
<rect x="164.5" y="33.5" width="35" height="35" stroke="white"/>
<rect x="199.5" y="33.5" width="35" height="35" stroke="white"/>
<rect x="234.5" y="33.5" width="35" height="35" stroke="white"/>
<rect x="269.5" y="33.5" width="35" height="35" stroke="white"/>
<rect x="24.5" y="68.5" width="35" height="35" stroke="white"/>
<rect x="59.5" y="68.5" width="35" height="35" stroke="white"/>
<rect x="94.5" y="68.5" width="35" height="35" stroke="white"/>
<rect x="129.5" y="68.5" width="35" height="35" stroke="white"/>
<rect x="164.5" y="68.5" width="35" height="35" stroke="white"/>
<rect x="199.5" y="68.5" width="35" height="35" stroke="white"/>
<rect x="234.5" y="68.5" width="35" height="35" stroke="white"/>
<rect x="269.5" y="68.5" width="35" height="35" stroke="white"/>
<rect x="24.5" y="103.5" width="35" height="35" stroke="white"/>
<rect x="59.5" y="103.5" width="35" height="35" stroke="white"/>
<rect x="94.5" y="103.5" width="35" height="35" stroke="white"/>
<rect x="129.5" y="103.5" width="35" height="35" stroke="white"/>
<rect x="164.5" y="103.5" width="35" height="35" stroke="white"/>
<rect x="199.5" y="103.5" width="35" height="35" stroke="white"/>
<rect x="234.5" y="103.5" width="35" height="35" stroke="white"/>
<rect x="269.5" y="103.5" width="35" height="35" stroke="white"/>
<rect x="24.5" y="138.5" width="35" height="35" stroke="white"/>
<rect x="59.5" y="138.5" width="35" height="35" stroke="white"/>
<rect x="94.5" y="138.5" width="35" height="35" stroke="white"/>
<rect x="129.5" y="138.5" width="35" height="35" stroke="white"/>
<rect x="164.5" y="138.5" width="35" height="35" stroke="white"/>
<rect x="199.5" y="138.5" width="35" height="35" stroke="white"/>
<rect x="234.5" y="138.5" width="35" height="35" stroke="white"/>
<rect x="269.5" y="138.5" width="35" height="35" stroke="white"/>
<rect x="24.5" y="173.5" width="35" height="35" stroke="white"/>
<rect x="59.5" y="173.5" width="35" height="35" stroke="white"/>
<rect x="94.5" y="173.5" width="35" height="35" stroke="white"/>
<rect x="129.5" y="173.5" width="35" height="35" stroke="white"/>
<rect x="164.5" y="173.5" width="35" height="35" stroke="white"/>
<rect x="199.5" y="173.5" width="35" height="35" stroke="white"/>
<rect x="234.5" y="173.5" width="35" height="35" stroke="white"/>
<rect x="269.5" y="173.5" width="35" height="35" stroke="white"/>
<rect x="24.5" y="208.5" width="35" height="35" stroke="white"/>
<rect x="59.5" y="208.5" width="35" height="35" stroke="white"/>
<rect x="94.5" y="208.5" width="35" height="35" stroke="white"/>
<rect x="129.5" y="208.5" width="35" height="35" stroke="white"/>
<rect x="164.5" y="208.5" width="35" height="35" stroke="white"/>
<rect x="199.5" y="208.5" width="35" height="35" stroke="white"/>
<rect x="234.5" y="208.5" width="35" height="35" stroke="white"/>
<rect x="269.5" y="208.5" width="35" height="35" stroke="white"/>
</g>
</g>
<defs>
<radialGradient id="paint0_radial_2190_50460" cx="0" cy="0" r="1" gradientUnits="userSpaceOnUse" gradientTransform="translate(165 138.5) rotate(90) scale(138.5 165)">
<stop stop-color="white" stop-opacity="0.3"/>
<stop offset="0.793198" stop-color="white" stop-opacity="0"/>
</radialGradient>
</defs>
</svg>
