<svg width="837" height="128" viewBox="0 0 837 128" fill="none" xmlns="http://www.w3.org/2000/svg">
<g clip-path="url(#clip0_2807_52705)">
<path d="M138.507 66.8346C139.183 63.3499 139.547 59.7091 139.547 56.0163C139.599 25.0695 114.373 0 83.2705 0C52.1677 0 26.9421 25.0695 26.9421 56.0163C26.9421 59.7091 27.3062 63.3499 27.9824 66.8346C21.0128 71.0996 16.3318 78.7972 16.3318 87.5351C16.3318 100.954 27.2542 111.824 40.7772 111.824C47.0705 111.824 52.7918 109.484 57.1087 105.583C64.9105 109.64 73.8044 111.98 83.2185 111.98C92.6325 111.98 101.526 109.64 109.328 105.583C113.645 109.432 119.366 111.824 125.66 111.824C139.131 111.824 150.105 100.954 150.105 87.5351C150.105 78.7972 145.424 71.0996 138.455 66.8346H138.507Z" fill="url(#paint0_linear_2807_52705)"/>
<path fill-rule="evenodd" clip-rule="evenodd" d="M166.489 87.7432C166.489 96.065 163.94 103.867 159.623 110.264C155.306 116.714 149.169 121.759 141.939 124.827C137.102 126.856 131.797 128 126.284 128C117.962 128 110.16 125.451 103.763 121.134C102.515 120.302 101.318 119.366 100.174 118.378L97.0534 115.257C97.6183 115.62 98.1947 115.967 98.7819 116.296C98.178 115.945 97.5845 115.58 97.0015 115.205L95.0251 113.229L54.5602 72.3476C52.7918 70.7353 50.7114 69.383 48.4749 68.3948C45.9784 67.3545 43.2218 66.7304 40.3091 66.7304C35.9402 66.7304 31.9353 68.0307 28.6065 70.3192C25.2258 72.6077 22.5732 75.7804 21.0129 79.5772C20.5968 80.5654 20.2603 81.4076 20.0002 82.4998C20.0333 81.9942 20.0811 81.4914 20.1432 80.9921C20.0186 81.5727 19.9096 82.159 19.8166 82.7506C19.4005 84.3629 19.1924 86.0273 19.1924 87.7437C19.1924 89.356 19.3485 90.9164 19.7125 92.3727L19.7154 92.3937L19.7202 92.3719C20.2923 94.9725 21.429 97.313 22.8853 99.4454C25.1738 102.826 28.3985 105.479 32.1434 107.039C34.6399 108.079 37.3965 108.703 40.3091 108.703C44.6781 108.703 48.683 107.403 52.0117 105.115C52.0637 105.063 52.1157 105.024 52.1677 104.985C52.2198 104.946 52.2718 104.907 52.3238 104.855C57.3169 101.318 64.1304 101.89 68.4473 106.259L73.0763 110.94L73.1283 110.992C72.0881 112.5 70.9439 113.905 69.6956 115.205C65.8988 119.314 61.2176 122.591 55.9645 124.828C51.1274 126.856 45.8223 128 40.3091 128C31.9872 128 24.1855 125.452 17.7881 121.135C11.3387 116.818 6.29361 110.681 3.22494 103.451C1.1965 98.6141 0.0522461 93.3089 0.0522461 87.7957C0.0522461 79.4739 2.6008 71.6722 6.91775 65.2748C11.2347 58.8774 17.372 53.7802 24.6016 50.7116C29.4387 48.6831 34.7438 47.5389 40.257 47.5389H41.8174C49.5151 47.8509 56.7967 50.3475 62.778 54.4044C65.3644 56.1794 67.7531 58.2017 69.8475 60.5194C69.9883 60.6129 70.1284 60.7069 70.2677 60.8011L70.7878 61.3212L112.969 103.919C114.529 105.219 116.298 106.311 118.222 107.091C120.719 108.131 123.475 108.756 126.388 108.756C130.757 108.756 134.762 107.455 138.091 105.167C141.471 102.878 144.124 99.6536 145.684 95.9088C146.516 93.9324 146.984 91.7999 147.141 89.5114C147.018 91.9005 146.657 94.2714 146.077 96.5762C146.694 94.3271 147.076 91.9802 147.192 89.5636L147.204 89.42C147.252 88.8512 147.296 88.3232 147.296 87.7952C147.296 87.119 147.296 86.3909 147.192 85.7148C147.014 82.9363 146.487 80.2537 145.655 77.7097C145.329 77.1221 144.974 76.5485 144.591 75.9888C142.259 72.6081 138.974 69.9555 135.16 68.3951C132.617 67.3549 129.808 66.7308 126.841 66.7308C122.391 66.7308 118.311 68.0311 114.92 70.3196C114.92 70.3196 114.867 70.3196 114.814 70.3716C109.675 73.8043 102.788 73.2842 98.39 68.9673L93.6216 64.2342H93.5686C94.3633 63.09 95.264 61.9977 96.1647 61.0095L96.1724 61.0057C100.125 56.5345 105.013 52.999 110.628 50.6071C114.581 48.9427 118.898 47.8505 123.371 47.5384C123.683 47.5384 123.995 47.5124 124.307 47.4864C124.619 47.4604 124.931 47.4344 125.244 47.4344H126.284C134.606 47.4344 142.407 49.9829 148.805 54.2999C155.254 58.6168 160.299 64.7542 163.368 71.9837C165.396 76.8208 166.541 82.126 166.541 87.6392L166.489 87.7432ZM114.029 120.452C114.247 120.456 114.466 120.458 114.685 120.458C114.794 120.458 114.902 120.458 115.01 120.457C114.885 120.441 114.759 120.424 114.633 120.406C114.431 120.424 114.23 120.439 114.029 120.452ZM96.4296 60.8535C96.4227 60.857 96.4156 60.8602 96.4091 60.8637C96.4028 60.8671 96.3966 60.8705 96.3905 60.8739C96.4028 60.8671 96.4158 60.8603 96.4296 60.8535Z" fill="url(#paint1_linear_2807_52705)"/>
<path d="M235.732 110.272C230.078 110.272 224.849 109.247 220.044 107.198C215.309 105.148 211.14 102.286 207.536 98.6118C204.002 94.9371 201.246 90.6265 199.268 85.6798C197.289 80.7331 196.3 75.3271 196.3 69.4618C196.3 63.5965 197.254 58.1905 199.162 53.2438C201.14 48.2265 203.896 43.9158 207.43 40.3118C211.034 36.6371 215.238 33.8105 220.044 31.8318C224.849 29.7825 230.078 28.7578 235.732 28.7578C241.385 28.7578 246.438 29.7118 250.89 31.6198C255.412 33.5278 259.228 36.0718 262.338 39.2518C265.447 42.3611 267.673 45.7885 269.016 49.5338L256.084 55.5758C254.6 51.6185 252.091 48.3678 248.558 45.8238C245.024 43.2091 240.749 41.9018 235.732 41.9018C230.785 41.9018 226.404 43.0678 222.588 45.3998C218.842 47.7318 215.91 50.9471 213.79 55.0458C211.74 59.1445 210.716 63.9498 210.716 69.4618C210.716 74.9738 211.74 79.8145 213.79 83.9838C215.91 88.0825 218.842 91.2978 222.588 93.6298C226.404 95.9618 230.785 97.1278 235.732 97.1278C240.749 97.1278 245.024 95.8558 248.558 93.3118C252.091 90.6971 254.6 87.4111 256.084 83.4538L269.016 89.4958C267.673 93.2411 265.447 96.7038 262.338 99.8838C259.228 102.993 255.412 105.502 250.89 107.41C246.438 109.318 241.385 110.272 235.732 110.272Z" fill="#F5F5F5"/>
<path d="M305.125 110.272C299.471 110.272 294.313 108.964 289.649 106.35C285.055 103.735 281.381 100.166 278.625 95.6438C275.939 91.1211 274.597 85.9625 274.597 80.1678C274.597 74.3731 275.939 69.2145 278.625 64.6918C281.381 60.1691 285.055 56.6005 289.649 53.9858C294.242 51.3711 299.401 50.0638 305.125 50.0638C310.778 50.0638 315.901 51.3711 320.495 53.9858C325.088 56.6005 328.727 60.1691 331.413 64.6918C334.169 69.1438 335.547 74.3025 335.547 80.1678C335.547 85.9625 334.169 91.1211 331.413 95.6438C328.657 100.166 324.982 103.735 320.389 106.35C315.795 108.964 310.707 110.272 305.125 110.272ZM305.125 97.5518C308.234 97.5518 310.955 96.8098 313.287 95.3258C315.689 93.8418 317.562 91.7925 318.905 89.1778C320.318 86.4925 321.025 83.4891 321.025 80.1678C321.025 76.7758 320.318 73.8078 318.905 71.2638C317.562 68.6492 315.689 66.5998 313.287 65.1158C310.955 63.5611 308.234 62.7838 305.125 62.7838C301.945 62.7838 299.153 63.5611 296.751 65.1158C294.348 66.5998 292.44 68.6492 291.027 71.2638C289.684 73.8078 289.013 76.7758 289.013 80.1678C289.013 83.4891 289.684 86.4925 291.027 89.1778C292.44 91.7925 294.348 93.8418 296.751 95.3258C299.153 96.8098 301.945 97.5518 305.125 97.5518Z" fill="#F5F5F5"/>
<path d="M366.429 110.272C360.281 110.272 354.91 108.823 350.317 105.926C345.794 102.958 342.685 98.9651 340.989 93.9478L351.377 88.9658C352.861 92.2165 354.91 94.7605 357.525 96.5978C360.21 98.4352 363.178 99.3538 366.429 99.3538C368.973 99.3538 370.987 98.7885 372.471 97.6578C373.955 96.5271 374.697 95.0432 374.697 93.2058C374.697 92.0751 374.379 91.1565 373.743 90.4498C373.178 89.6725 372.365 89.0365 371.305 88.5418C370.316 87.9765 369.22 87.5171 368.019 87.1638L358.585 84.5138C353.709 83.1005 349.999 80.9451 347.455 78.0478C344.982 75.1505 343.745 71.7231 343.745 67.7658C343.745 64.2325 344.628 61.1585 346.395 58.5438C348.232 55.8585 350.741 53.7738 353.921 52.2898C357.172 50.8058 360.882 50.0638 365.051 50.0638C370.492 50.0638 375.298 51.3711 379.467 53.9858C383.636 56.6005 386.604 60.2751 388.371 65.0098L377.771 69.9918C376.782 67.3771 375.121 65.2925 372.789 63.7378C370.457 62.1831 367.842 61.4058 364.945 61.4058C362.613 61.4058 360.776 61.9358 359.433 62.9958C358.09 64.0558 357.419 65.4338 357.419 67.1298C357.419 68.1898 357.702 69.1085 358.267 69.8858C358.832 70.6631 359.61 71.2991 360.599 71.7938C361.659 72.2885 362.86 72.7478 364.203 73.1718L373.425 75.9278C378.16 77.3411 381.799 79.4611 384.343 82.2878C386.958 85.1145 388.265 88.5771 388.265 92.6758C388.265 96.1385 387.346 99.2125 385.509 101.898C383.672 104.512 381.128 106.562 377.877 108.046C374.626 109.53 370.81 110.272 366.429 110.272Z" fill="#F5F5F5"/>
<path d="M397.346 109V51.3358H410.384V64.6918L408.9 62.4658C409.96 58.2965 412.08 55.1871 415.26 53.1378C418.44 51.0885 422.186 50.0638 426.496 50.0638C431.231 50.0638 435.4 51.3005 439.004 53.7738C442.608 56.2471 444.94 59.4978 446 63.5258L442.078 63.8438C443.845 59.2505 446.495 55.8231 450.028 53.5618C453.562 51.2298 457.625 50.0638 462.218 50.0638C466.317 50.0638 469.956 50.9825 473.136 52.8198C476.387 54.6571 478.931 57.2365 480.768 60.5578C482.606 63.8085 483.524 67.5891 483.524 71.8998V109H469.638V75.1858C469.638 72.6418 469.179 70.4511 468.26 68.6138C467.342 66.7765 466.07 65.3631 464.444 64.3738C462.819 63.3138 460.84 62.7838 458.508 62.7838C456.318 62.7838 454.374 63.3138 452.678 64.3738C450.982 65.3631 449.675 66.7765 448.756 68.6138C447.838 70.4511 447.378 72.6418 447.378 75.1858V109H433.492V75.1858C433.492 72.6418 433.033 70.4511 432.114 68.6138C431.196 66.7765 429.888 65.3631 428.192 64.3738C426.567 63.3138 424.624 62.7838 422.362 62.7838C420.172 62.7838 418.228 63.3138 416.532 64.3738C414.836 65.3631 413.529 66.7765 412.61 68.6138C411.692 70.4511 411.232 72.6418 411.232 75.1858V109H397.346Z" fill="#F5F5F5"/>
<path d="M521.878 110.272C516.225 110.272 511.066 108.964 506.402 106.35C501.809 103.735 498.134 100.166 495.378 95.6438C492.693 91.1211 491.35 85.9625 491.35 80.1678C491.35 74.3731 492.693 69.2145 495.378 64.6918C498.134 60.1691 501.809 56.6005 506.402 53.9858C510.995 51.3711 516.154 50.0638 521.878 50.0638C527.531 50.0638 532.655 51.3711 537.248 53.9858C541.841 56.6005 545.481 60.1691 548.166 64.6918C550.922 69.1438 552.3 74.3025 552.3 80.1678C552.3 85.9625 550.922 91.1211 548.166 95.6438C545.41 100.166 541.735 103.735 537.142 106.35C532.549 108.964 527.461 110.272 521.878 110.272ZM521.878 97.5518C524.987 97.5518 527.708 96.8098 530.04 95.3258C532.443 93.8418 534.315 91.7925 535.658 89.1778C537.071 86.4925 537.778 83.4891 537.778 80.1678C537.778 76.7758 537.071 73.8078 535.658 71.2638C534.315 68.6492 532.443 66.5998 530.04 65.1158C527.708 63.5611 524.987 62.7838 521.878 62.7838C518.698 62.7838 515.907 63.5611 513.504 65.1158C511.101 66.5998 509.193 68.6492 507.78 71.2638C506.437 73.8078 505.766 76.7758 505.766 80.1678C505.766 83.4891 506.437 86.4925 507.78 89.1778C509.193 91.7925 511.101 93.8418 513.504 95.3258C515.907 96.8098 518.698 97.5518 521.878 97.5518Z" fill="#F5F5F5"/>
<path d="M589.012 110.272C583.288 110.272 578.13 108.964 573.536 106.35C569.014 103.664 565.445 100.06 562.83 95.5378C560.216 90.9445 558.908 85.7858 558.908 80.0618C558.908 74.3378 560.216 69.2145 562.83 64.6918C565.445 60.1691 569.014 56.6005 573.536 53.9858C578.13 51.3711 583.288 50.0638 589.012 50.0638C593.111 50.0638 596.927 50.8058 600.46 52.2898C603.994 53.7031 607.032 55.6818 609.576 58.2258C612.191 60.6991 614.064 63.6671 615.194 67.1298L603.004 72.4298C601.944 69.5325 600.142 67.2005 597.598 65.4338C595.125 63.6671 592.263 62.7838 589.012 62.7838C585.974 62.7838 583.253 63.5258 580.85 65.0098C578.518 66.4938 576.681 68.5431 575.338 71.1578C573.996 73.7725 573.324 76.7758 573.324 80.1678C573.324 83.5598 573.996 86.5631 575.338 89.1778C576.681 91.7925 578.518 93.8418 580.85 95.3258C583.253 96.8098 585.974 97.5518 589.012 97.5518C592.334 97.5518 595.231 96.6685 597.704 94.9018C600.178 93.1351 601.944 90.7678 603.004 87.7998L615.194 93.3118C614.064 96.5625 612.226 99.4951 609.682 102.11C607.138 104.654 604.1 106.668 600.566 108.152C597.033 109.565 593.182 110.272 589.012 110.272Z" fill="#F5F5F5"/>
<path d="M624.141 109V28.7578H638.027V109H624.141Z" fill="#F5F5F5"/>
<path d="M677.454 110.272C671.8 110.272 666.642 108.964 661.978 106.35C657.384 103.735 653.71 100.166 650.954 95.6438C648.268 91.1211 646.926 85.9625 646.926 80.1678C646.926 74.3731 648.268 69.2145 650.954 64.6918C653.71 60.1691 657.384 56.6005 661.978 53.9858C666.571 51.3711 671.73 50.0638 677.454 50.0638C683.107 50.0638 688.23 51.3711 692.824 53.9858C697.417 56.6005 701.056 60.1691 703.742 64.6918C706.498 69.1438 707.876 74.3025 707.876 80.1678C707.876 85.9625 706.498 91.1211 703.742 95.6438C700.986 100.166 697.311 103.735 692.718 106.35C688.124 108.964 683.036 110.272 677.454 110.272ZM677.454 97.5518C680.563 97.5518 683.284 96.8098 685.616 95.3258C688.018 93.8418 689.891 91.7925 691.234 89.1778C692.647 86.4925 693.354 83.4891 693.354 80.1678C693.354 76.7758 692.647 73.8078 691.234 71.2638C689.891 68.6492 688.018 66.5998 685.616 65.1158C683.284 63.5611 680.563 62.7838 677.454 62.7838C674.274 62.7838 671.482 63.5611 669.08 65.1158C666.677 66.5998 664.769 68.6492 663.356 71.2638C662.013 73.8078 661.342 76.7758 661.342 80.1678C661.342 83.4891 662.013 86.4925 663.356 89.1778C664.769 91.7925 666.677 93.8418 669.08 95.3258C671.482 96.8098 674.274 97.5518 677.454 97.5518Z" fill="#F5F5F5"/>
<path d="M737.38 110.272C732.928 110.272 729.042 109.282 725.72 107.304C722.469 105.325 719.961 102.569 718.194 99.0358C716.498 95.5025 715.65 91.3685 715.65 86.6338V51.3358H729.536V85.4678C729.536 87.8705 729.995 89.9905 730.914 91.8278C731.903 93.5945 733.281 95.0078 735.048 96.0678C736.885 97.0572 738.935 97.5518 741.196 97.5518C743.458 97.5518 745.471 97.0572 747.238 96.0678C749.005 95.0078 750.383 93.5592 751.372 91.7218C752.361 89.8845 752.856 87.6938 752.856 85.1498V51.3358H766.742V109H753.598V97.6578L754.764 99.6718C753.422 103.205 751.195 105.855 748.086 107.622C745.047 109.388 741.479 110.272 737.38 110.272Z" fill="#F5F5F5"/>
<path d="M804.878 110.272C799.295 110.272 794.313 108.964 789.932 106.35C785.551 103.664 782.088 100.025 779.544 95.4318C777 90.8385 775.728 85.7505 775.728 80.1678C775.728 74.5145 777 69.4265 779.544 64.9038C782.088 60.3811 785.551 56.7771 789.932 54.0918C794.384 51.4065 799.331 50.0638 804.772 50.0638C809.153 50.0638 813.04 50.9471 816.432 52.7138C819.895 54.4098 822.615 56.8125 824.594 59.9218L822.474 62.7838V28.7578H836.36V109H823.216V97.8698L824.7 100.626C822.721 103.735 819.965 106.138 816.432 107.834C812.899 109.459 809.047 110.272 804.878 110.272ZM806.362 97.5518C809.542 97.5518 812.333 96.8098 814.736 95.3258C817.139 93.8418 819.011 91.7925 820.354 89.1778C821.767 86.5631 822.474 83.5598 822.474 80.1678C822.474 76.8465 821.767 73.8785 820.354 71.2638C819.011 68.5785 817.139 66.4938 814.736 65.0098C812.333 63.5258 809.542 62.7838 806.362 62.7838C803.253 62.7838 800.461 63.5611 797.988 65.1158C795.515 66.5998 793.571 68.6492 792.158 71.2638C790.815 73.8078 790.144 76.7758 790.144 80.1678C790.144 83.5598 790.815 86.5631 792.158 89.1778C793.571 91.7925 795.515 93.8418 797.988 95.3258C800.461 96.8098 803.253 97.5518 806.362 97.5518Z" fill="#F5F5F5"/>
</g>
<defs>
<linearGradient id="paint0_linear_2807_52705" x1="83.2964" y1="0" x2="83.2964" y2="200.036" gradientUnits="userSpaceOnUse">
<stop stop-color="#6D5BA3"/>
<stop offset="0.713153" stop-color="#957BE1" stop-opacity="0"/>
</linearGradient>
<linearGradient id="paint1_linear_2807_52705" x1="-0.499756" y1="86.999" x2="166.5" y2="86.999" gradientUnits="userSpaceOnUse">
<stop stop-color="#9B75EC"/>
<stop offset="1" stop-color="#E2A3AC"/>
</linearGradient>
<clipPath id="clip0_2807_52705">
<rect width="837" height="128" fill="white"/>
</clipPath>
</defs>
</svg>
